<mxfile host="app.diagrams.net" modified="2023-11-02T14:24:09.354Z" agent="Mozilla/5.0 (Macintosh; Intel Mac OS X 10_15_7) AppleWebKit/537.36 (KHTML, like Gecko) Chrome/118.0.0.0 Safari/537.36" etag="pZ6alxqs7knuVPdxjA2O" version="22.0.8" type="github">
  <diagram id="3228e29e-7158-1315-38df-8450db1d8a1d" name="Page-1">
    <mxGraphModel dx="607" dy="1278" grid="0" gridSize="10" guides="1" tooltips="1" connect="1" arrows="1" fold="1" page="1" pageScale="1" pageWidth="600" pageHeight="550" background="#EFF1F3" math="0" shadow="1">
      <root>
        <mxCell id="0" />
        <mxCell id="1" parent="0" />
        <mxCell id="Zxyhw3o_makbFYxT9f12-17" value="" style="rounded=1;whiteSpace=wrap;html=1;dashed=1;strokeWidth=5;fillColor=none;" parent="1" vertex="1">
          <mxGeometry x="18" y="-364" width="528" height="329" as="geometry" />
        </mxCell>
        <mxCell id="Zxyhw3o_makbFYxT9f12-14" value="" style="rounded=1;whiteSpace=wrap;html=1;strokeColor=none;fontSize=18;labelBackgroundColor=none;fillColor=#E6D7C2;" parent="1" vertex="1">
          <mxGeometry x="81" y="-266" width="400" height="217" as="geometry" />
        </mxCell>
        <mxCell id="pCjDIv-f0e-wGzuPs2K4-11" value="" style="rounded=1;whiteSpace=wrap;html=1;fillColor=#EFF1F3;" parent="1" vertex="1">
          <mxGeometry x="217" y="-182" width="120" height="42" as="geometry" />
        </mxCell>
        <mxCell id="Zxyhw3o_makbFYxT9f12-7" value="" style="rounded=1;whiteSpace=wrap;html=1;dashed=1;strokeWidth=5;fillColor=none;" parent="1" vertex="1">
          <mxGeometry x="18" y="-514" width="530" height="137" as="geometry" />
        </mxCell>
        <mxCell id="Zxyhw3o_makbFYxT9f12-2" value="&lt;font style=&quot;font-size: 18px&quot;&gt;socket&amp;nbsp; send()&lt;/font&gt;" style="rounded=1;whiteSpace=wrap;html=1;strokeColor=none;labelBackgroundColor=none;fillColor=#FDD276;" parent="1" vertex="1">
          <mxGeometry x="40" y="-404" width="483" height="88" as="geometry" />
        </mxCell>
        <mxCell id="Zxyhw3o_makbFYxT9f12-11" value="&lt;font style=&quot;font-size: 24px&quot;&gt;用户态&lt;/font&gt;" style="text;html=1;strokeColor=none;fillColor=none;align=center;verticalAlign=middle;whiteSpace=wrap;rounded=0;dashed=1;" parent="1" vertex="1">
          <mxGeometry x="21" y="-495" width="132.5" height="20" as="geometry" />
        </mxCell>
        <mxCell id="Zxyhw3o_makbFYxT9f12-12" value="&lt;font style=&quot;font-size: 24px&quot;&gt;内核态&lt;/font&gt;" style="text;html=1;strokeColor=none;align=center;verticalAlign=middle;whiteSpace=wrap;rounded=0;dashed=1;labelBackgroundColor=none;" parent="1" vertex="1">
          <mxGeometry x="36.25" y="-298" width="102" height="20" as="geometry" />
        </mxCell>
        <mxCell id="222Te1zxGotTQ1m0-dcR-3" value="" style="aspect=fixed;pointerEvents=1;shadow=0;dashed=0;html=1;strokeColor=none;labelPosition=center;verticalLabelPosition=bottom;verticalAlign=top;align=center;shape=mxgraph.mscae.enterprise.code_file;fillColor=#535E80;" parent="1" vertex="1">
          <mxGeometry x="236.91000000000003" y="-505" width="89.18" height="91" as="geometry" />
        </mxCell>
        <mxCell id="ZfyCddCFMZxiEYEglCBR-1" value="&lt;font color=&quot;#333333&quot; face=&quot;open sans, clear sans, helvetica neue, helvetica, arial, sans-serif&quot;&gt;&lt;span style=&quot;font-size: 18px&quot;&gt;tcp_sendmsg 逻辑&lt;/span&gt;&lt;/font&gt;" style="text;html=1;strokeColor=none;fillColor=none;align=center;verticalAlign=middle;whiteSpace=wrap;rounded=0;" parent="1" vertex="1">
          <mxGeometry x="93" y="-91" width="156" height="48" as="geometry" />
        </mxCell>
        <mxCell id="ZfyCddCFMZxiEYEglCBR-3" value="&lt;font color=&quot;#333333&quot; face=&quot;open sans, clear sans, helvetica neue, helvetica, arial, sans-serif&quot;&gt;&lt;span style=&quot;font-size: 18px&quot;&gt;发送缓冲区&lt;/span&gt;&lt;/font&gt;" style="text;html=1;strokeColor=none;fillColor=none;align=center;verticalAlign=middle;whiteSpace=wrap;rounded=0;" parent="1" vertex="1">
          <mxGeometry x="223" y="-134" width="110" height="43" as="geometry" />
        </mxCell>
        <mxCell id="ZfyCddCFMZxiEYEglCBR-4" value="2" style="rounded=1;whiteSpace=wrap;html=1;fillColor=#9AC7BF;" parent="1" vertex="1">
          <mxGeometry x="303" y="-182" width="16" height="42" as="geometry" />
        </mxCell>
        <mxCell id="ZfyCddCFMZxiEYEglCBR-5" value="3" style="rounded=1;whiteSpace=wrap;html=1;fillColor=#9AC7BF;" parent="1" vertex="1">
          <mxGeometry x="286" y="-182" width="16" height="42" as="geometry" />
        </mxCell>
        <mxCell id="ZfyCddCFMZxiEYEglCBR-6" value="4" style="rounded=1;whiteSpace=wrap;html=1;fillColor=#9AC7BF;" parent="1" vertex="1">
          <mxGeometry x="269" y="-182" width="16" height="42" as="geometry" />
        </mxCell>
        <mxCell id="222Te1zxGotTQ1m0-dcR-4" value="" style="curved=1;endArrow=classic;html=1;strokeColor=#535E80;strokeWidth=5;dashed=1;exitX=1;exitY=0.5;exitDx=0;exitDy=0;" parent="1" source="ZfyCddCFMZxiEYEglCBR-8" edge="1">
          <mxGeometry width="50" height="50" relative="1" as="geometry">
            <mxPoint x="185.5" y="-422" as="sourcePoint" />
            <mxPoint x="210.5" y="-161" as="targetPoint" />
            <Array as="points">
              <mxPoint x="162.5" y="-406.5" />
              <mxPoint x="131.5" y="-336.5" />
              <mxPoint x="131.5" y="-241.5" />
              <mxPoint x="176.5" y="-171.5" />
            </Array>
          </mxGeometry>
        </mxCell>
        <mxCell id="ZfyCddCFMZxiEYEglCBR-8" value="&lt;font style=&quot;font-size: 18px&quot;&gt;1. 通过send &lt;br&gt;发送数据&lt;/font&gt;" style="text;html=1;strokeColor=none;fillColor=none;align=center;verticalAlign=middle;whiteSpace=wrap;rounded=0;" parent="1" vertex="1">
          <mxGeometry x="70" y="-459" width="144" height="48" as="geometry" />
        </mxCell>
        <mxCell id="ZfyCddCFMZxiEYEglCBR-9" value="&lt;font style=&quot;font-size: 18px&quot;&gt;2. 发送缓冲区满了,也不等了&lt;/font&gt;" style="text;html=1;strokeColor=none;fillColor=none;align=center;verticalAlign=middle;whiteSpace=wrap;rounded=0;" parent="1" vertex="1">
          <mxGeometry x="195" y="-240" width="149" height="48" as="geometry" />
        </mxCell>
        <mxCell id="ZfyCddCFMZxiEYEglCBR-10" value="head" style="text;html=1;strokeColor=none;fillColor=none;align=center;verticalAlign=middle;whiteSpace=wrap;rounded=0;" parent="1" vertex="1">
          <mxGeometry x="339" y="-174" width="35" height="20" as="geometry" />
        </mxCell>
        <mxCell id="ijSoyV1o0yViyPh6vLqH-1" value="8" style="rounded=1;whiteSpace=wrap;html=1;fillColor=#9AC7BF;" parent="1" vertex="1">
          <mxGeometry x="162" y="-226" width="16" height="42" as="geometry" />
        </mxCell>
        <mxCell id="ijSoyV1o0yViyPh6vLqH-2" value="5" style="rounded=1;whiteSpace=wrap;html=1;fillColor=#9AC7BF;" parent="1" vertex="1">
          <mxGeometry x="252" y="-182" width="16" height="42" as="geometry" />
        </mxCell>
        <mxCell id="ijSoyV1o0yViyPh6vLqH-3" value="6" style="rounded=1;whiteSpace=wrap;html=1;fillColor=#9AC7BF;" parent="1" vertex="1">
          <mxGeometry x="235" y="-182" width="16" height="42" as="geometry" />
        </mxCell>
        <mxCell id="ijSoyV1o0yViyPh6vLqH-4" value="7" style="rounded=1;whiteSpace=wrap;html=1;fillColor=#9AC7BF;" parent="1" vertex="1">
          <mxGeometry x="218" y="-182" width="16" height="42" as="geometry" />
        </mxCell>
        <mxCell id="ijSoyV1o0yViyPh6vLqH-7" value="1" style="rounded=1;whiteSpace=wrap;html=1;fillColor=#9AC7BF;" parent="1" vertex="1">
          <mxGeometry x="320" y="-182" width="16" height="42" as="geometry" />
        </mxCell>
        <mxCell id="ijSoyV1o0yViyPh6vLqH-35" value="&lt;font style=&quot;font-size: 18px&quot;&gt;3. 返回EAGAIN&lt;/font&gt;" style="text;html=1;strokeColor=none;fillColor=none;align=center;verticalAlign=middle;whiteSpace=wrap;rounded=0;" parent="1" vertex="1">
          <mxGeometry x="347" y="-462" width="144" height="48" as="geometry" />
        </mxCell>
        <mxCell id="ijSoyV1o0yViyPh6vLqH-36" value="" style="curved=1;endArrow=none;html=1;strokeColor=#535E80;strokeWidth=5;dashed=1;startArrow=classic;startFill=1;endFill=0;" parent="1" edge="1">
          <mxGeometry width="50" height="50" relative="1" as="geometry">
            <mxPoint x="365" y="-415" as="sourcePoint" />
            <mxPoint x="381" y="-171" as="targetPoint" />
            <Array as="points">
              <mxPoint x="403" y="-400" />
              <mxPoint x="430" y="-361" />
              <mxPoint x="435" y="-272" />
              <mxPoint x="410" y="-201" />
            </Array>
          </mxGeometry>
        </mxCell>
      </root>
    </mxGraphModel>
  </diagram>
</mxfile>
